<svg width="151" height="117" viewBox="0 0 151 117" fill="none" xmlns="http://www.w3.org/2000/svg"><path fill-rule="evenodd" clip-rule="evenodd" d="M57.0679 0.181213C41.6764 0.980754 26.7553 2.57482 22.1338 3.91319C13.9228 6.29117 7.18142 12.7073 4.14133 21.0371C2.04589 26.779 0 45.0313 0 57.9847C0 70.9381 2.04589 89.1904 4.14133 94.9323C7.10828 103.062 13.747 109.502 21.677 111.943C26.5016 113.427 42.1978 115.072 58.69 115.82C67.1921 116.205 91.9708 116.018 99.5371 115.511C112.365 114.65 125.041 113.165 128.764 112.087C137.492 109.557 144.367 102.794 147.136 94.0118C149.156 87.6066 150.997 70.4727 151 58.0469C151.004 45.0508 148.961 26.7949 146.86 21.0371C143.751 12.5191 137.097 6.24162 128.663 3.87102C124.737 2.76741 114.439 1.53079 101.333 0.588799C94.0943 0.0685521 64.4841 -0.203958 57.0679 0.181213ZM99.0947 9.89014C110.936 10.7369 121.64 11.9 125.324 12.7403C131.394 14.1244 136.845 19.5115 138.464 25.7249C139.033 27.9112 140.249 36.2744 140.881 42.3537C141.592 49.2027 141.592 66.7667 140.881 73.6157C140.243 79.7445 139.032 88.0638 138.452 90.2913C137.673 93.2804 136.052 95.966 133.467 98.5495C130.835 101.18 128.55 102.494 125.324 103.229C121.62 104.074 110.683 105.26 99.0947 106.073C91.7806 106.587 67.8182 106.769 58.9849 106.379C45.1893 105.77 29.1946 104.219 24.9704 103.082C19.3255 101.562 14.0762 96.1305 12.5252 90.2049C11.9506 88.0101 10.7636 79.8035 10.1251 73.6157C9.48714 67.4308 9.39807 50.0955 9.97288 43.9758C10.4695 38.6878 11.6693 29.7285 12.2521 26.956C13.6084 20.5039 18.1833 15.1687 24.0482 13.1998C27.7235 11.9658 42.1096 10.4074 57.0679 9.62323C63.407 9.29085 93.3744 9.48108 99.0947 9.89014ZM58.5426 31.5783C57.1567 32.0776 55.8116 33.5508 55.5833 34.8195C55.4945 35.3135 55.4603 46.0697 55.5075 58.722L55.5933 81.7261L56.2802 82.6891C57.1891 83.9637 58.5319 84.6306 60.2012 84.6365C61.4526 84.6409 62.4238 84.1307 71.9982 78.4354C77.7366 75.0222 86.2802 69.9477 90.9843 67.1589C95.6883 64.3701 99.9603 61.64 100.478 61.0923C102.142 59.3304 102.14 56.5351 100.472 54.8948C99.6616 54.0976 92.2952 49.625 67.3903 34.8092C64.3083 32.9757 61.3222 31.4031 60.7545 31.3144C60.177 31.2241 59.2026 31.3403 58.5426 31.5783ZM77.2246 51.6438C82.9172 55.0502 87.5788 57.9086 87.5838 57.9956C87.5915 58.1316 65.8151 71.2318 65.1318 71.502C64.9952 71.5563 64.8834 65.4811 64.8834 58.0021V44.404L65.8788 44.9272C66.4265 45.215 71.5319 48.2374 77.2246 51.6438Z" fill="#BE3C3C"/></svg>