<svg width="151" height="92" viewBox="0 0 151 92" fill="none" xmlns="http://www.w3.org/2000/svg"><path fill-rule="evenodd" clip-rule="evenodd" d="M46.6616 0.290243C44.9443 0.904522 44.211 1.99369 42.2317 6.86747L40.4598 11.2309L35.5387 11.5791C32.2712 11.8106 30.32 12.0815 29.732 12.3854C27.839 13.3644 26.754 15.7816 27.2988 17.8058C27.6296 19.0343 28.9025 20.3648 33.0028 23.7681C34.4242 24.948 35.5869 26.0386 35.5869 26.1919C35.5869 26.3449 35.1321 28.2908 34.5763 30.5161C33.0896 36.4666 33.0905 37.186 34.5857 38.841C35.7895 40.1735 37.3834 40.7878 38.899 40.5034C39.4524 40.3998 41.7096 39.1866 43.9145 37.8074C46.1197 36.4285 48.0662 35.3001 48.2402 35.3001C48.4141 35.3001 50.0307 36.2312 51.8325 37.3691C56.698 40.442 57.3102 40.7143 58.8699 40.5005C61.2717 40.1712 63.0623 38.1668 63.0452 35.8263C63.0413 35.2933 62.5325 32.8621 61.915 30.4239L60.7915 25.9905L64.4793 22.8969C66.5073 21.1952 68.411 19.4026 68.7093 18.9133C69.4363 17.7213 69.4281 15.359 68.6927 14.1532C67.5604 12.2965 66.5297 11.9542 60.9959 11.598L55.9872 11.2758L54.4521 7.41411C53.6074 5.29012 52.6763 3.06749 52.3824 2.47477C51.3969 0.486634 48.8406 -0.48942 46.6616 0.290243ZM101.254 0.174178C99.4794 0.705766 98.7023 1.83096 96.765 6.6758L94.9254 11.2758L89.9164 11.598C84.3822 11.9542 83.3516 12.2965 82.2193 14.1532C81.4839 15.359 81.4756 17.7213 82.2027 18.9133C82.501 19.4026 84.4047 21.1952 86.4327 22.8969L90.1204 25.9905L88.997 30.4239C88.3795 32.8621 87.8706 35.2933 87.8668 35.8263C87.8497 38.157 89.5602 40.1408 91.888 40.4898C93.5324 40.7364 94.2196 40.4393 99.0207 37.4066C100.855 36.2481 102.498 35.3001 102.672 35.3001C102.846 35.3001 104.792 36.4285 106.997 37.8074C109.202 39.1866 111.46 40.3998 112.013 40.5034C113.529 40.7878 115.123 40.1735 116.326 38.841C117.822 37.186 117.822 36.4666 116.336 30.5161C115.78 28.2908 115.325 26.3449 115.325 26.1919C115.325 26.0386 116.488 24.948 117.909 23.7681C122.01 20.3648 123.282 19.0343 123.613 17.8058C124.158 15.7804 123.073 13.3644 121.178 12.3842C120.584 12.0776 118.706 11.8183 115.519 11.6039L110.748 11.2826L109.988 10.3954C109.061 9.3113 107.635 9.19139 106.707 10.1193C105.71 11.1163 106.105 13.613 107.461 14.8865C108.075 15.4641 108.653 15.5586 113.285 15.8398C116.112 16.0111 118.683 16.2497 118.996 16.3699C119.473 16.5524 118.855 17.1826 115.229 20.2157C112.309 22.6574 110.826 24.0989 110.692 24.6249C110.56 25.1417 110.951 27.183 111.846 30.6493C112.591 33.5325 113.089 35.9598 112.955 36.0431C112.82 36.1261 110.6 34.8633 108.021 33.2369C105.441 31.6102 103.097 30.2795 102.811 30.2795C102.107 30.2795 101.649 30.532 96.7807 33.5996C94.4591 35.0623 92.4819 36.1813 92.3868 36.0862C92.2917 35.9914 92.7793 33.6456 93.47 30.8737C94.1608 28.1018 94.7261 25.4982 94.7261 25.088C94.7261 24.1376 94.1378 23.5248 89.7102 19.8624C87.718 18.2145 86.0878 16.7636 86.0878 16.6384C86.0878 16.286 87.0352 16.1617 92.2654 15.8268C95.4387 15.6236 97.3261 15.3749 97.729 15.1071C98.0993 14.8605 98.9218 13.2453 99.7977 11.0446C100.597 9.03546 101.566 6.66517 101.951 5.77741L102.65 4.16316L103.304 4.98299C104.583 6.58809 107.154 5.77003 107.154 3.75738C107.154 1.37941 103.876 -0.611392 101.254 0.174178ZM50.5381 9.63793C51.8254 12.8481 52.7932 14.8496 53.183 15.1083C53.5844 15.3744 55.4842 15.6242 58.6466 15.8268C63.8768 16.1617 64.8242 16.286 64.8242 16.6384C64.8242 16.7636 63.194 18.2145 61.2018 19.8624C56.7742 23.5248 56.1859 24.1376 56.1859 25.088C56.1859 25.4982 56.7512 28.1018 57.442 30.8737C58.1327 33.6456 58.6203 35.9914 58.5252 36.0862C58.4301 36.1813 56.4529 35.0623 54.1313 33.5996C49.2635 30.532 48.8045 30.2795 48.1008 30.2795C47.8152 30.2795 45.4709 31.6102 42.8915 33.2369C40.3121 34.8633 38.0915 36.1261 37.9569 36.0431C37.8225 35.9598 38.3213 33.5325 39.0658 30.6493C39.9607 27.183 40.352 25.1417 40.22 24.6249C40.0859 24.0989 38.6028 22.6574 35.6835 20.2157C32.0568 17.1826 31.4393 16.5524 31.916 16.3699C32.2293 16.2497 34.8057 16.0108 37.6412 15.8386C42.3945 15.5504 42.8472 15.4736 43.4529 14.8552C43.8141 14.486 44.9963 11.9586 46.0801 9.23864C47.1637 6.51839 48.1533 4.3566 48.2791 4.43427C48.4049 4.51194 49.4215 6.85359 50.5381 9.63793ZM19.1815 51.6632C17.7031 52.307 16.857 53.631 15.0753 58.0881C14.1441 60.417 13.3275 62.3786 13.2605 62.4474C13.1934 62.5159 10.9023 62.7279 8.16933 62.9181C2.67005 63.3009 1.97751 63.5277 0.724732 65.3561C0.181626 66.1487 0 66.8023 0 67.9641C0 70.1445 0.114882 70.2794 6.8947 76.0552L8.45491 77.3841L7.25234 82.2434C6.40682 85.6607 6.10677 87.4052 6.24114 88.121C6.50457 89.5256 8.20861 91.3333 9.63002 91.716C11.347 92.1782 12.5753 91.7187 16.8676 89.0067C18.9606 87.6845 20.8058 86.6004 20.9682 86.5977C21.1306 86.5948 23.0139 87.6848 25.1536 89.0197C27.2932 90.3549 29.517 91.5778 30.0959 91.7376C32.3988 92.3734 34.8899 90.9021 35.6164 88.4763C35.9655 87.3118 35.9067 86.8544 34.8613 82.5943C34.2375 80.0536 33.6749 77.8307 33.6108 77.6546C33.5465 77.4786 35.1445 75.9692 37.1619 74.3006C41.409 70.7874 42.2243 69.6457 42.0182 67.5001C41.8599 65.8534 40.958 64.4385 39.6278 63.7507C38.9899 63.4208 37.1867 63.1591 33.9254 62.9232C29.4275 62.598 29.1021 62.533 28.214 61.7859C26.787 60.5851 25.2209 60.847 24.6365 62.3839C24.2564 63.3836 25.0567 65.8749 25.9424 66.4497C26.3683 66.7264 28.4137 66.983 32.1168 67.2249C35.7106 67.4594 37.6486 67.6992 37.6382 67.9077C37.6294 68.0843 35.7145 69.7998 33.3826 71.7201C30.6481 73.9719 29.0776 75.4722 28.9586 75.9468C28.8443 76.4019 29.2905 78.665 30.1275 81.8772C30.8717 84.7342 31.3746 87.1719 31.245 87.2941C31.1153 87.4164 28.9494 86.2055 26.4317 84.6031C23.7484 82.8955 21.537 81.685 21.0878 81.6782C20.6156 81.6708 18.5182 82.7913 15.6243 84.5966C13.0407 86.2085 10.8329 87.4365 10.7177 87.3257C10.6022 87.215 11.1188 84.7809 11.865 81.9165C12.7085 78.6788 13.1518 76.429 13.0363 75.9695C12.9173 75.4949 11.3072 73.9391 8.53908 71.6241C6.1676 69.6407 4.33953 67.9145 4.47627 67.7878C4.6133 67.6614 7.11738 67.4 10.0411 67.2075C13.4829 66.9806 15.5773 66.7151 15.9822 66.4544C16.3877 66.1933 17.2604 64.4104 18.4647 61.3815C21.0001 55.006 20.7086 55.4597 21.6752 56.3861C22.6994 57.3672 24.0287 57.402 24.9037 56.4709C25.7156 55.6064 25.7174 54.6959 24.9093 53.3888C23.8022 51.5971 21.1605 50.8012 19.1815 51.6632ZM73.4835 51.7072C72.0633 52.3292 71.2384 53.6508 69.4045 58.2434C67.476 63.0723 68.1216 62.6284 62.6093 62.9178C58.19 63.1497 56.9871 63.4556 55.7911 64.6517C54.2586 66.1842 53.9695 68.3719 55.0362 70.3651C55.2923 70.8435 59.9868 74.9781 62.7442 77.1538C62.8187 77.2125 62.3839 79.2816 61.7782 81.7523C60.5795 86.6414 60.4593 88.0425 61.1267 89.3333C62.0668 91.1517 64.5392 92.2724 66.4473 91.7456C67.0102 91.5899 69.2674 90.3242 71.4635 88.9323L75.456 86.4016L79.4485 88.9323C81.6446 90.3242 83.9017 91.5899 84.4646 91.7456C86.3727 92.2724 88.8452 91.1517 89.7852 89.3333C90.4527 88.0425 90.3325 86.6414 89.1338 81.7523C88.528 79.2816 88.0933 77.2125 88.1677 77.1538C90.9252 74.9781 95.6197 70.8435 95.8758 70.3651C96.9425 68.3719 96.6534 66.1842 95.1209 64.6517C93.9249 63.4556 92.722 63.1497 88.3027 62.9178C82.7904 62.6284 83.436 63.0723 81.5075 58.2434C80.5873 55.939 79.5058 53.6198 79.1042 53.09C77.8266 51.4048 75.4876 50.8292 73.4835 51.7072ZM127.848 51.81C126.342 52.494 125.815 53.3439 123.892 58.1879C123.053 60.2995 122.248 62.1497 122.103 62.2997C121.957 62.4497 119.674 62.7288 117.028 62.9202C113.732 63.1585 111.923 63.4202 111.284 63.7507C109.954 64.4385 109.052 65.8534 108.894 67.5001C108.688 69.6457 109.503 70.7874 113.75 74.3006C115.768 75.9692 117.366 77.4786 117.301 77.6546C117.237 77.8307 116.674 80.0536 116.051 82.5943C115.005 86.8544 114.947 87.3118 115.296 88.4763C116.029 90.926 118.497 92.3664 120.862 91.7255C121.472 91.5607 123.761 90.2976 125.951 88.919C129.878 86.4459 129.941 86.4188 130.676 86.9049C134.107 89.1748 138.082 91.4736 139.009 91.7231C140.644 92.1635 142.209 91.6531 143.456 90.2728C145.014 88.5481 145.033 87.7944 143.66 82.2434L142.457 77.3841L144.017 76.0552C150.423 70.5978 150.725 70.267 150.97 68.4452C151.187 66.8265 150.207 64.7884 148.79 63.9131C147.901 63.3632 146.995 63.2141 142.759 62.9193C140.017 62.7282 137.719 62.5159 137.652 62.4474C137.584 62.3786 136.768 60.417 135.837 58.0881C134.032 53.5725 133.202 52.2929 131.665 51.6505C130.367 51.108 129.296 51.1526 127.848 51.81ZM77.7191 60.7445C79.1591 64.3372 79.963 65.9653 80.4825 66.3407C81.0693 66.7648 82.2704 66.9384 86.5308 67.214C89.4545 67.403 91.9506 67.6531 92.0776 67.7698C92.2043 67.8864 90.8753 69.1667 89.1243 70.6146C83.9871 74.8623 83.4298 75.4285 83.4298 76.4013C83.4298 76.8753 83.9676 79.4021 84.6247 82.0163C85.2821 84.6306 85.7803 86.9539 85.7322 87.1795C85.6734 87.4557 84.1026 86.6246 80.9195 84.6332C78.2079 82.9366 75.8798 81.6767 75.456 81.6767C75.0322 81.6767 72.7041 82.9366 69.9925 84.6332C66.8094 86.6246 65.2386 87.4557 65.1798 87.1795C65.1317 86.9539 65.6299 84.6306 66.2873 82.0163C66.9444 79.4021 67.4822 76.8753 67.4822 76.4013C67.4822 75.4285 66.9249 74.8623 61.7877 70.6146C60.0367 69.1667 58.7077 67.8864 58.8344 67.7698C58.9614 67.6531 61.4575 67.403 64.3812 67.214C68.6416 66.9384 69.8427 66.7648 70.4295 66.3407C70.949 65.9653 71.7529 64.3372 73.1929 60.7445C74.3101 57.9578 75.3284 55.6776 75.456 55.6776C75.5836 55.6776 76.6019 57.9578 77.7191 60.7445ZM132.32 61.085C133.616 64.3333 134.518 66.1892 134.928 66.4535C135.335 66.7154 137.421 66.9801 140.871 67.2075C143.795 67.4 146.299 67.6614 146.436 67.7878C146.572 67.9145 144.744 69.6407 142.373 71.6241C139.605 73.9391 137.995 75.4949 137.876 75.9695C137.76 76.429 138.203 78.6788 139.047 81.9165C139.793 84.7809 140.31 87.215 140.194 87.3257C140.079 87.4365 137.871 86.2085 135.288 84.5966C132.394 82.7913 130.296 81.6708 129.824 81.6782C129.375 81.685 127.164 82.8955 124.48 84.6031C121.963 86.2055 119.797 87.4164 119.667 87.2941C119.537 87.1719 120.04 84.7342 120.785 81.8772C121.621 78.665 122.068 76.4019 121.953 75.9468C121.834 75.4722 120.264 73.9719 117.529 71.7201C115.198 69.7998 113.283 68.0843 113.274 67.9077C113.263 67.6992 115.201 67.4594 118.795 67.2249C122.293 66.9963 124.553 66.7202 124.931 66.4753C125.288 66.2435 126.11 64.6151 126.971 62.4329C129.206 56.7682 129.783 55.545 130.074 55.8468C130.22 55.9974 131.231 58.3547 132.32 61.085Z" fill="#BE3C3C"/></svg>