<svg width="118" height="141" viewBox="0 0 118 141" fill="none" xmlns="http://www.w3.org/2000/svg"><path fill-rule="evenodd" clip-rule="evenodd" d="M8.97504 0.332239C7.62656 0.758277 5.32662 3.14541 4.91312 4.54828C4.72932 5.17178 4.57903 6.49478 4.57903 7.48814V9.29446L3.42425 9.93476C1.14931 11.1961 -0.367311 14.2805 0.0775108 16.7409C0.456117 18.8345 2.08978 21.0374 3.7861 21.7415L4.57903 22.0709V30.8627V39.6544L5.25354 40.3302C5.62445 40.702 6.24814 41.0063 6.63966 41.0063C7.03118 41.0063 7.65486 40.702 8.02577 40.3302L8.70029 39.6544V30.9668V22.2794H14.0173C19.079 22.2794 19.3779 22.2497 20.2426 21.6598C22.0686 20.4141 22.2914 19.8394 22.3862 16.1317C22.4642 13.0732 22.4158 12.6694 21.8367 11.54C21.421 10.7298 20.8217 10.089 20.1024 9.6858C19.0743 9.10912 18.6707 9.06919 13.8519 9.06478L8.70029 9.06037V7.38679C8.70029 5.90433 8.79205 5.62123 9.50338 4.90822L10.3065 4.10324H54.4097H98.513L99.284 4.76777L100.055 5.43258L100.126 63.4465L100.196 121.461L99.3911 122.268L98.5861 123.074H54.3545H10.1229L9.41162 122.227L8.70029 121.38V83.9346V46.4892L8.02577 45.8134C7.16526 44.9506 6.11269 44.9519 5.24969 45.817L4.57133 46.4969L4.64387 84.6008L4.7164 122.705L5.5478 124.053C6.06241 124.887 6.8916 125.719 7.723 126.234C9.04537 127.054 9.13824 127.07 13.6227 127.205L18.1792 127.343L18.3166 131.91C18.4517 136.405 18.4671 136.498 19.2853 137.824C19.7999 138.657 20.6297 139.488 21.4619 140.004L22.8065 140.838L54.2265 140.911L85.6464 140.984L86.3253 140.304C87.1892 139.438 87.1908 138.383 86.3297 137.52L85.6555 136.844H54.8919H24.1284L23.2832 136.131L22.4378 135.418V131.312V127.205L60.8342 127.199C97.4275 127.194 99.2823 127.17 100.33 126.69C101.643 126.089 103.005 124.744 103.683 123.38C104.151 122.436 104.18 119.777 104.248 70.1295L104.319 17.8731H108.181C110.422 17.8731 112.276 17.9981 112.597 18.1705C113.992 18.919 113.93 16.1356 113.93 77.3088C113.93 118.297 113.844 134.529 113.625 135.159C113.053 136.804 112.774 136.844 102.117 136.844H92.4743L91.8 137.52C90.9362 138.386 90.9409 139.438 91.8124 140.311L92.499 141L102.893 140.919L113.287 140.838L114.63 140.005C116.351 138.938 117.427 137.383 117.779 135.457C117.963 134.45 118.033 114.375 117.986 76.384L117.914 18.8369L117.341 17.5977C116.706 16.2218 115.135 14.6997 113.753 14.1208C113.118 13.855 111.584 13.7421 108.605 13.7421H104.361L104.265 9.26692C104.181 5.32572 104.1 4.66037 103.58 3.69015C102.809 2.24982 101.719 1.23802 100.192 0.545396C98.9641 -0.0120061 98.6614 -0.0155864 54.4463 0.00644534C22.8189 0.0221429 9.65834 0.116328 8.97504 0.332239ZM18.3166 15.6699V18.1485H11.9077C5.61264 18.1485 5.489 18.1374 4.93318 17.5288C4.62216 17.1881 4.28587 16.6396 4.18641 16.3096C3.93583 15.4799 4.69772 13.7864 5.45988 13.4799C5.80661 13.3403 8.84096 13.2183 12.2034 13.2087L18.3166 13.1913V15.6699ZM29.7187 23.2345C19.3919 25.4922 12.2995 35.6794 13.8991 45.9571C14.6374 50.7003 16.2405 53.7944 19.8277 57.3985C23.7553 61.3449 27.4254 62.9832 32.9086 63.2377C37.9442 63.4715 41.7742 62.381 45.6471 59.611C53.4789 54.0092 56.3366 43.4995 52.3961 34.789C50.3385 30.24 46.4324 26.3525 42.0075 24.4498C38.4973 22.9403 33.3792 22.4342 29.7187 23.2345ZM61.5123 23.2882C59.7226 24.1725 59.4025 25.0124 59.302 29.0891C59.219 32.4539 59.2594 32.8161 59.8333 33.8397C60.2413 34.567 60.8529 35.141 61.6145 35.5105C62.7144 36.044 63.1886 36.069 70.7486 35.9925C78.3062 35.9156 78.7623 35.8818 79.4808 35.3436C81.1853 34.0672 81.3642 33.5577 81.4622 29.7033C81.5461 26.4046 81.5068 26.068 80.9149 25.0122C79.7335 22.9054 79.3634 22.8294 70.3241 22.8365C63.601 22.8418 62.2789 22.9095 61.5123 23.2882ZM31.7794 31.9252C31.7794 36.8553 31.775 36.8905 31.1458 37.1304C29.9893 37.5711 28.6868 38.9004 28.0337 40.3066C26.3129 44.0104 28.2592 48.2785 32.1915 49.4236C33.6889 49.8598 33.9834 49.8664 35.4044 49.4976L36.9691 49.092L40.3499 52.4992C44.1909 56.3699 44.1365 55.9791 41.0541 57.5555C38.8264 58.6948 36.7045 59.1825 33.9774 59.1825C29.4426 59.1825 25.9497 57.735 22.6848 54.5027C17.5701 49.439 16.3914 42.3054 19.592 35.7865C21.5202 31.8596 25.8563 28.4122 30.1905 27.3602C30.9889 27.1666 31.673 26.9975 31.7107 26.9845C31.7483 26.9716 31.7794 29.1949 31.7794 31.9252ZM77.388 29.4397V31.9183H70.3818H63.3757V29.4397V26.9611H70.3818H77.388V29.4397ZM39.0641 27.7887C45.5562 30.0277 49.945 36.0503 50 42.7964C50.0113 44.1596 49.858 45.9566 49.6596 46.7897C49.2582 48.4756 48.0119 51.2423 47.1783 52.2976L46.6348 52.9861L43.2999 49.6516L39.965 46.3168L40.3043 44.7966C40.9901 41.7254 39.8227 38.9018 37.2876 37.5003L35.9086 36.7377L35.9045 31.9871L35.9006 27.2365H36.6817C37.1114 27.2365 38.1835 27.4849 39.0641 27.7887ZM35.5706 41.2895C37.6054 43.1894 35.3569 46.5597 32.9034 45.2879C30.5443 44.0652 31.2832 40.7309 33.9131 40.7309C34.5977 40.7309 35.1843 40.9284 35.5706 41.2895ZM59.9784 41.5772C59.0322 42.3233 58.9915 43.692 59.8902 44.5386L60.5262 45.1373H77.1385C95.1847 45.1373 94.6954 45.1786 95.0838 43.6267C95.2847 42.8245 94.669 41.4354 93.998 41.1774C93.7535 41.0835 86.1619 41.0063 77.1278 41.0063C60.9266 41.0063 60.6925 41.0141 59.9784 41.5772ZM59.9289 50.7705C59.0635 51.6377 59.0473 52.8327 59.8902 53.6267L60.5262 54.2254H77.2121H93.898L94.5723 53.5493C94.9432 53.1775 95.2468 52.6878 95.2468 52.4609C95.2468 51.687 94.6379 50.7066 93.9673 50.4001C93.5005 50.187 88.3459 50.0944 76.9503 50.0944H60.6032L59.9289 50.7705ZM60.44 59.4598C59.2146 59.9547 58.8566 61.8131 59.8039 62.7626C60.3334 63.2933 60.7197 63.3134 70.334 63.3134H80.3143L80.9119 62.6762C81.8986 61.6233 81.6661 60.2466 80.3904 59.5854C79.7514 59.2541 77.9649 59.1855 70.3269 59.1998C65.2193 59.2095 60.7702 59.3265 60.44 59.4598ZM15.8463 78.1449C15.2817 78.4487 14.6352 79.1471 14.2535 79.8661C13.6612 80.982 13.6178 81.3467 13.6972 84.5415C13.7788 87.8276 13.8219 88.0573 14.5341 88.9922C15.8875 90.7688 16.6104 90.8892 25.3757 90.7969C32.7294 90.7195 33.1526 90.6867 33.8892 90.1393C34.3153 89.8223 34.9423 89.1533 35.2824 88.6527C35.8459 87.8226 35.9006 87.4236 35.8995 84.134C35.8984 80.084 35.6105 79.2217 33.9111 78.1835C33.0712 77.6701 32.5135 77.636 24.9062 77.6352C17.531 77.6341 16.7109 77.6803 15.8463 78.1449ZM91.675 78.1849C91.2145 78.6464 91.1255 79.1028 91.1255 81.0055V83.2753L85.051 89.3687L78.9763 95.4618L72.404 93.2793C68.7891 92.0789 65.6149 91.1656 65.35 91.2499C64.4884 91.5239 54.5837 101.718 54.5837 102.33C54.5837 103.368 55.6175 104.347 56.7135 104.347C57.6251 104.347 58.0527 104.001 62.0563 100.016L66.4081 95.6846L72.7974 97.8129C76.3112 98.9833 79.4239 99.9412 79.714 99.9412C80.0324 99.9412 82.4025 97.7851 85.6923 94.5024L91.1428 89.0638L91.0656 100.861L90.9881 112.658L90.2172 113.322L89.4462 113.986L73.0453 113.99C64.0246 113.992 56.361 114.07 56.0151 114.163C55.3747 114.335 54.5837 115.53 54.5837 116.326C54.5837 116.568 54.8873 117.069 55.2582 117.441L55.9324 118.117H72.7417C84.7035 118.117 89.8575 118.025 90.615 117.798C91.9929 117.384 93.7307 115.882 94.5005 114.439C95.1077 113.301 95.1097 113.252 95.188 96.204C95.266 79.1763 95.2641 79.1074 94.6871 78.3721C93.9637 77.4504 92.4984 77.3595 91.675 78.1849ZM31.7794 84.2436V86.7221H24.7732H17.7671V84.2436V81.765H24.7732H31.7794V84.2436ZM14.3203 96.4863C13.9494 96.8581 13.6458 97.4832 13.6458 97.8757C13.6458 98.2681 13.9494 98.8933 14.3203 99.2651L14.9946 99.9412H31.642H48.2894L48.9636 99.2651C49.8233 98.4036 49.8233 97.3477 48.9636 96.4863L48.2894 95.8102H31.642H14.9946L14.3203 96.4863ZM14.3203 105.574C13.9494 105.946 13.6458 106.571 13.6458 106.964C13.6458 107.356 13.9494 107.981 14.3203 108.353L14.9946 109.029H31.642H48.2894L48.9636 108.353C49.8233 107.492 49.8233 106.436 48.9636 105.574L48.2894 104.898H31.642H14.9946L14.3203 105.574ZM14.3203 114.662C13.9494 115.034 13.6458 115.659 13.6458 116.052C13.6458 116.444 13.9494 117.069 14.3203 117.441L14.9946 118.117H24.8982C34.4354 118.117 34.8219 118.097 35.3511 117.567C36.1693 116.746 36.0839 115.272 35.1766 114.557C34.4752 114.004 34.1502 113.986 24.7238 113.986H14.9946L14.3203 114.662Z" fill="#BE3C3C"/></svg>