<svg width="30" height="30" viewBox="0 0 30 30" fill="none" xmlns="http://www.w3.org/2000/svg"><path fill-rule="evenodd" clip-rule="evenodd" d="M28.896 0.217035C30.4177 1.02987 30.3526 3.30463 28.7856 4.078L28.3862 4.27509L14.9101 4.25339C2.02961 4.23269 1.42128 4.22498 1.14643 4.07842C-0.359392 3.27539 -0.388081 1.0106 1.09749 0.217035L1.50382 0H14.9968H28.4897L28.896 0.217035ZM28.4268 12.9397C30.2327 13.4625 30.3771 16.1557 28.6446 17.0004C28.2154 17.2096 1.66212 17.2096 1.23288 17.0004C-0.399338 16.2047 -0.399338 13.7948 1.23288 12.9991C1.61272 12.8139 27.7926 12.7561 28.4268 12.9397ZM28.42 25.8036C29.915 26.295 30.3633 28.2157 29.2532 29.3727C28.6113 30.0418 29.3183 29.9995 10.9186 29.9995H1.50382L1.09749 29.7824C-0.388081 28.9889 -0.359392 26.7241 1.14643 25.921C1.45207 25.7581 27.9386 25.6454 28.42 25.8036Z" fill="#000"/></svg>